<svg width="29" height="29" viewBox="0 0 29 29" fill="none" xmlns="http://www.w3.org/2000/svg">
<g clip-path="url(#clip0_69_2)">
<path d="M1.81857 7.34546C2.29911 7.34589 2.75982 7.53712 3.0994 7.87713L12.3697 17.1475C12.6503 17.4281 12.9833 17.6506 13.3499 17.8025C13.7164 17.9544 14.1093 18.0325 14.5061 18.0325C14.9028 18.0325 15.2957 17.9544 15.6623 17.8025C16.0288 17.6506 16.3619 17.4281 16.6424 17.1475L25.9007 7.88921C26.2425 7.55905 26.7003 7.37636 27.1756 7.38049C27.6508 7.38462 28.1054 7.57524 28.4414 7.91129C28.7775 8.24734 28.9681 8.70194 28.9722 9.17717C28.9764 9.6524 28.7937 10.1102 28.4635 10.4521L19.2125 19.7103C17.9652 20.9552 16.275 21.6544 14.5127 21.6544C12.7505 21.6544 11.0602 20.9552 9.8129 19.7103L0.53653 10.44C0.282881 10.1865 0.110125 9.86349 0.0401215 9.51179C-0.0298823 9.16009 0.00601266 8.79553 0.143264 8.46424C0.280516 8.13295 0.512955 7.84981 0.81117 7.65066C1.10939 7.45151 1.45997 7.3453 1.81857 7.34546Z" fill="#18292F"/>
</g>
<defs>
<clipPath id="clip0_69_2">
<rect width="29" height="29" fill="white" transform="translate(0 29) rotate(-90)"/>
</clipPath>
</defs>
</svg>
