<svg width="29" height="29" viewBox="0 0 29 29" fill="none" xmlns="http://www.w3.org/2000/svg">
<path d="M21.6546 1.81857C21.6542 2.29911 21.4629 2.75982 21.1229 3.0994L11.8526 12.3697C11.572 12.6503 11.3494 12.9833 11.1976 13.3499C11.0457 13.7164 10.9675 14.1093 10.9675 14.5061C10.9675 14.9028 11.0457 15.2957 11.1976 15.6623C11.3494 16.0288 11.572 16.3619 11.8526 16.6424L21.1108 25.9007C21.441 26.2425 21.6237 26.7003 21.6196 27.1756C21.6154 27.6508 21.4248 28.1054 21.0888 28.4414C20.7527 28.7775 20.2981 28.9681 19.8229 28.9722C19.3477 28.9764 18.8898 28.7937 18.548 28.4635L9.28972 19.2125C8.04486 17.9652 7.3457 16.275 7.3457 14.5127C7.3457 12.7505 8.04486 11.0602 9.28972 9.8129L18.5601 0.53653C18.8135 0.282881 19.1366 0.110125 19.4883 0.0401215C19.84 -0.0298822 20.2045 0.00601268 20.5358 0.143264C20.8671 0.280516 21.1502 0.512955 21.3494 0.81117C21.5485 1.10939 21.6548 1.45997 21.6546 1.81857Z" fill="#2E5A6A"/>
</svg>
