<svg width="48" height="48" viewBox="0 0 48 48" fill="none" xmlns="http://www.w3.org/2000/svg">
<rect width="48" height="48" rx="24" fill="#FF0000"/>
<path d="M12.8625 12.8625C13.2844 12.4407 13.8566 12.2037 14.4533 12.2037C15.0499 12.2037 15.6221 12.4407 16.044 12.8625L24 20.8185L31.956 12.8625C32.3804 12.4526 32.9487 12.2259 33.5387 12.231C34.1286 12.2361 34.6929 12.4727 35.1101 12.8899C35.5273 13.3071 35.7639 13.8714 35.769 14.4614C35.7741 15.0513 35.5474 15.6197 35.1375 16.044L27.1815 24L35.1375 31.956C35.5474 32.3804 35.7741 32.9487 35.769 33.5387C35.7639 34.1286 35.5273 34.6929 35.1101 35.1101C34.6929 35.5273 34.1286 35.7639 33.5387 35.769C32.9487 35.7741 32.3804 35.5474 31.956 35.1375L24 27.1815L16.044 35.1375C15.6197 35.5474 15.0513 35.7741 14.4614 35.769C13.8714 35.7639 13.3071 35.5273 12.8899 35.1101C12.4727 34.6929 12.2361 34.1286 12.231 33.5387C12.2259 32.9487 12.4526 32.3804 12.8625 31.956L20.8185 24L12.8625 16.044C12.4407 15.6221 12.2037 15.0499 12.2037 14.4533C12.2037 13.8566 12.4407 13.2844 12.8625 12.8625Z" fill="white"/>
</svg>
