<svg width="21" height="22" viewBox="0 0 21 22" fill="none" xmlns="http://www.w3.org/2000/svg">
<g clip-path="url(#clip0_4_129)">
<path d="M18.375 0H2.625C1.92881 0 1.26113 0.289731 0.768845 0.805456C0.276562 1.32118 0 2.02065 0 2.75L0 18.3333H6.0375L9.3695 21.2832C9.68536 21.5628 10.0856 21.7163 10.4991 21.7163C10.9127 21.7163 11.3129 21.5628 11.6287 21.2832L14.9625 18.3333H21V2.75C21 2.02065 20.7234 1.32118 20.2312 0.805456C19.7389 0.289731 19.0712 0 18.375 0ZM5.25 4.58333H10.5V6.41667H5.25V4.58333ZM15.75 13.75H5.25V11.9167H15.75V13.75ZM15.75 10.0833H5.25V8.25H15.75V10.0833Z" fill="#2E5A6A"/>
</g>
<defs>
<clipPath id="clip0_4_129">
<rect width="21" height="22" fill="white"/>
</clipPath>
</defs>
</svg>
