<svg width="17" height="18" viewBox="0 0 17 18" fill="none" xmlns="http://www.w3.org/2000/svg">
<g clip-path="url(#clip0_52_46)">
<path d="M16.2916 3H12.0416V1.5C12.0416 0.67275 11.4063 0 10.625 0H6.37498C5.59369 0 4.95831 0.67275 4.95831 1.5V3H0.708313V4.5H1.87281L3.0791 15.9982C3.19881 17.139 4.1069 18 5.19135 18H11.7817C12.8661 18 13.7742 17.1397 13.8932 15.9982L15.0995 4.5H16.2909L16.2916 3ZM6.37498 1.5H10.625V3H6.37498V1.5ZM12.4851 15.8325C12.4454 16.2128 12.1429 16.5 11.781 16.5H5.19135C4.8301 16.5 4.52694 16.2128 4.48727 15.8325L3.29798 4.5H13.6751L12.4858 15.8325H12.4851ZM5.6971 12.4072L7.4984 10.5L5.6971 8.59275L6.69869 7.53225L8.49998 9.4395L10.3013 7.53225L11.3029 8.59275L9.50156 10.5L11.3029 12.4072L10.3013 13.4678L8.49998 11.5605L6.69869 13.4678L5.6971 12.4072Z" fill="white"/>
</g>
<defs>
<clipPath id="clip0_52_46">
<rect width="17" height="18" fill="white"/>
</clipPath>
</defs>
</svg>
