<svg width="15" height="16" viewBox="0 0 15 16" fill="none" xmlns="http://www.w3.org/2000/svg">
<g clip-path="url(#clip0_39_176)">
<path d="M11.66 0.620007L4.04001 8.74801C3.74898 9.05677 3.51825 9.42405 3.36119 9.82857C3.20413 10.2331 3.12385 10.6668 3.12501 11.1047V12C3.12501 12.1768 3.19086 12.3464 3.30807 12.4714C3.42528 12.5964 3.58425 12.6667 3.75001 12.6667H4.58939C4.99986 12.6679 5.40649 12.5823 5.78574 12.4148C6.16498 12.2472 6.5093 12.0011 6.79876 11.6907L14.4188 3.56267C14.784 3.17212 14.9891 2.64299 14.9891 2.09134C14.9891 1.53969 14.784 1.01056 14.4188 0.620007C14.0473 0.24127 13.5532 0.0299072 13.0394 0.0299072C12.5255 0.0299072 12.0315 0.24127 11.66 0.620007ZM13.535 2.62001L5.91501 10.748C5.56259 11.1216 5.08627 11.332 4.58939 11.3333H4.37501V11.1047C4.37631 10.5747 4.57349 10.0666 4.92376 9.69067L12.5438 1.56267C12.6773 1.42664 12.8548 1.35074 13.0394 1.35074C13.224 1.35074 13.4015 1.42664 13.535 1.56267C13.6662 1.70302 13.7399 1.89314 13.7399 2.09134C13.7399 2.28955 13.6662 2.47966 13.535 2.62001Z" fill="#1D3E65"/>
<path d="M14.375 5.986C14.2092 5.986 14.0503 6.05624 13.9331 6.18126C13.8158 6.30629 13.75 6.47586 13.75 6.65267V10H11.25C10.7527 10 10.2758 10.2107 9.92417 10.5858C9.57254 10.9609 9.375 11.4696 9.375 12V14.6667H3.125C2.62772 14.6667 2.15081 14.456 1.79917 14.0809C1.44754 13.7058 1.25 13.1971 1.25 12.6667V3.33333C1.25 2.8029 1.44754 2.29419 1.79917 1.91912C2.15081 1.54405 2.62772 1.33333 3.125 1.33333H8.77625C8.94201 1.33333 9.10098 1.2631 9.21819 1.13807C9.3354 1.01305 9.40125 0.843478 9.40125 0.666667C9.40125 0.489856 9.3354 0.320286 9.21819 0.195262C9.10098 0.0702379 8.94201 0 8.77625 0L3.125 0C2.2965 0.00105857 1.50222 0.352588 0.916387 0.97748C0.330551 1.60237 0.000992411 2.4496 0 3.33333L0 12.6667C0.000992411 13.5504 0.330551 14.3976 0.916387 15.0225C1.50222 15.6474 2.2965 15.9989 3.125 16H10.2144C10.6249 16.0012 11.0317 15.9156 11.411 15.7481C11.7904 15.5806 12.1348 15.3345 12.4244 15.024L14.0844 13.252C14.3755 12.9432 14.6063 12.576 14.7634 12.1715C14.9206 11.767 15.001 11.3332 15 10.8953V6.65267C15 6.47586 14.9342 6.30629 14.8169 6.18126C14.6997 6.05624 14.5408 5.986 14.375 5.986ZM11.5406 14.0813C11.2894 14.3487 10.9717 14.5337 10.625 14.6147V12C10.625 11.8232 10.6908 11.6536 10.8081 11.5286C10.9253 11.4036 11.0842 11.3333 11.25 11.3333H13.7031C13.6258 11.7023 13.4525 12.0406 13.2031 12.3093L11.5406 14.0813Z" fill="#1D3E65"/>
</g>
<defs>
<clipPath id="clip0_39_176">
<rect width="15" height="16" fill="white"/>
</clipPath>
</defs>
</svg>
