<svg width="14" height="14" viewBox="0 0 14 14" fill="none" xmlns="http://www.w3.org/2000/svg">
<g clip-path="url(#clip0_52_38)">
<path d="M6.42072 1.5038L6.41664 10.5093C6.41664 10.664 6.4781 10.8124 6.58749 10.9218C6.69689 11.0312 6.84526 11.0926 6.99997 11.0926C7.15468 11.0926 7.30305 11.0312 7.41245 10.9218C7.52185 10.8124 7.5833 10.664 7.5833 10.5093L7.58739 1.51372L9.28605 3.21297C9.39545 3.32232 9.54379 3.38376 9.69847 3.38376C9.85315 3.38376 10.0015 3.32232 10.1109 3.21297C10.2202 3.10357 10.2817 2.95523 10.2817 2.80055C10.2817 2.64587 10.2202 2.49752 10.1109 2.38813L8.2378 0.512716C8.07529 0.350094 7.88232 0.22109 7.66993 0.133074C7.45753 0.0450581 7.22988 -0.000244141 6.99997 -0.000244141C6.77006 -0.000244141 6.54241 0.0450581 6.33002 0.133074C6.11762 0.22109 5.92465 0.350094 5.76214 0.512716L3.88905 2.38638C3.7797 2.49577 3.71826 2.64412 3.71826 2.7988C3.71826 2.95348 3.7797 3.10182 3.88905 3.21122C3.99844 3.32057 4.14679 3.38201 4.30147 3.38201C4.45615 3.38201 4.6045 3.32057 4.71389 3.21122L6.42072 1.5038Z" fill="#6BB0C6"/>
<path d="M12.8333 9.91671V12.25C12.8333 12.4048 12.7719 12.5531 12.6625 12.6625C12.5531 12.7719 12.4047 12.8334 12.25 12.8334H1.75C1.59529 12.8334 1.44692 12.7719 1.33752 12.6625C1.22812 12.5531 1.16667 12.4048 1.16667 12.25V9.91671C1.16667 9.762 1.10521 9.61362 0.995812 9.50423C0.886416 9.39483 0.738043 9.33337 0.583333 9.33337C0.428624 9.33337 0.280251 9.39483 0.170854 9.50423C0.0614582 9.61362 0 9.762 0 9.91671L0 12.25C0 12.7142 0.184374 13.1593 0.512563 13.4875C0.840752 13.8157 1.28587 14 1.75 14H12.25C12.7141 14 13.1592 13.8157 13.4874 13.4875C13.8156 13.1593 14 12.7142 14 12.25V9.91671C14 9.762 13.9385 9.61362 13.8291 9.50423C13.7197 9.39483 13.5714 9.33337 13.4167 9.33337C13.262 9.33337 13.1136 9.39483 13.0042 9.50423C12.8948 9.61362 12.8333 9.762 12.8333 9.91671Z" fill="#6BB0C6"/>
</g>
<defs>
<clipPath id="clip0_52_38">
<rect width="14" height="14" fill="white"/>
</clipPath>
</defs>
</svg>
