<svg width="48" height="48" viewBox="0 0 48 48" fill="none" xmlns="http://www.w3.org/2000/svg">
<g clip-path="url(#clip0_76_2)">
<path fill-rule="evenodd" clip-rule="evenodd" d="M45 42C45 43.656 43.656 45 42 45H34.248L23.196 33.8025L36 20.9985L45 29.9985V42ZM6 45C4.344 45 3 43.656 3 42V40.5915L14.9175 29.9175L30.0015 45H6ZM12 6C15.3135 6 18 8.6865 18 12C18 15.3135 15.3135 18 12 18C8.6865 18 6 15.3135 6 12C6 8.6865 8.6865 6 12 6ZM42 0H6C2.6865 0 0 2.6865 0 6V42C0 45.3135 2.6865 48 6 48H42C45.3135 48 48 45.3135 48 42V6C48 2.6865 45.3135 0 42 0ZM12 15C13.656 15 15 13.656 15 12C15 10.344 13.656 9 12 9C10.344 9 9 10.344 9 12C9 13.656 10.344 15 12 15Z" fill="#2E5A6A"/>
</g>
<defs>
<clipPath id="clip0_76_2">
<rect width="48" height="48" fill="white"/>
</clipPath>
</defs>
</svg>
