<svg width="22" height="22" viewBox="0 0 22 22" fill="none" xmlns="http://www.w3.org/2000/svg">
<g clip-path="url(#clip0_4_137)">
<path d="M11 3.66667C12.0125 3.66667 12.8333 2.84586 12.8333 1.83333C12.8333 0.820811 12.0125 0 11 0C9.98748 0 9.16666 0.820811 9.16666 1.83333C9.16666 2.84586 9.98748 3.66667 11 3.66667Z" fill="#2E5A6A"/>
<path d="M11 12.8333C12.0125 12.8333 12.8333 12.0125 12.8333 11C12.8333 9.98748 12.0125 9.16667 11 9.16667C9.98748 9.16667 9.16666 9.98748 9.16666 11C9.16666 12.0125 9.98748 12.8333 11 12.8333Z" fill="#2E5A6A"/>
<path d="M11 22C12.0125 22 12.8333 21.1792 12.8333 20.1667C12.8333 19.1542 12.0125 18.3333 11 18.3333C9.98748 18.3333 9.16666 19.1542 9.16666 20.1667C9.16666 21.1792 9.98748 22 11 22Z" fill="#2E5A6A"/>
</g>
<defs>
<clipPath id="clip0_4_137">
<rect width="22" height="22" fill="white"/>
</clipPath>
</defs>
</svg>
