<svg width="73" height="74" viewBox="0 0 73 74" fill="none" xmlns="http://www.w3.org/2000/svg">
<path d="M25.8541 41.625C25.8541 47.5758 30.6296 52.4167 36.5 52.4167C42.3704 52.4167 47.1458 47.5758 47.1458 41.625C47.1458 35.6742 42.3704 30.8333 36.5 30.8333C30.6296 30.8333 25.8541 35.6742 25.8541 41.625ZM41.0625 41.625C41.0625 44.1749 39.0154 46.25 36.5 46.25C33.9845 46.25 31.9375 44.1749 31.9375 41.625C31.9375 39.0751 33.9845 37 36.5 37C39.0154 37 41.0625 39.0751 41.0625 41.625ZM43.8426 0H15.2083C10.1774 0 6.08331 4.15017 6.08331 9.25V74H66.9166V23.3902L43.8426 0ZM45.625 10.5265L56.5324 21.5833H45.625V10.5265ZM45.625 67.8333H27.375V64.75C27.375 63.0511 28.7407 61.6667 30.4166 61.6667H42.5833C44.2623 61.6667 45.625 63.0511 45.625 64.75V67.8333ZM60.8333 67.8333H51.7083V64.75C51.7083 59.6502 47.6142 55.5 42.5833 55.5H30.4166C25.3857 55.5 21.2916 59.6502 21.2916 64.75V67.8333H12.1666V9.25C12.1666 7.55108 13.5324 6.16667 15.2083 6.16667H39.5416V27.75H60.8333V67.8333Z" fill="#2E5A6A"/>
</svg>
