<svg width="33" height="33" viewBox="0 0 33 33" fill="none" xmlns="http://www.w3.org/2000/svg">
<g clip-path="url(#clip0_57_2)">
<path d="M22.0591 19.25H10.9409C9.13386 19.2522 7.40149 19.971 6.12373 21.2487C4.84598 22.5265 4.12718 24.2589 4.125 26.0659V33H28.875V26.0659C28.8728 24.2589 28.154 22.5265 26.8763 21.2487C25.5985 19.971 23.8661 19.2522 22.0591 19.25Z" fill="#111B1E"/>
<path d="M16.5 16.5C21.0563 16.5 24.75 12.8063 24.75 8.25C24.75 3.69365 21.0563 0 16.5 0C11.9437 0 8.25 3.69365 8.25 8.25C8.25 12.8063 11.9437 16.5 16.5 16.5Z" fill="#111B1E"/>
</g>
<defs>
<clipPath id="clip0_57_2">
<rect width="33" height="33" fill="white"/>
</clipPath>
</defs>
</svg>
